<?xml version="1.0" standalone="no"?>
<!DOCTYPE svg PUBLIC "-//W3C//DTD SVG 20010904//EN"
 "http://www.w3.org/TR/2001/REC-SVG-20010904/DTD/svg10.dtd">
<svg version="1.0" xmlns="http://www.w3.org/2000/svg"
 width="300.000000pt" height="300.000000pt" viewBox="0 0 300.000000 300.000000"
 preserveAspectRatio="xMidYMid meet">
<metadata>
Created by potrace 1.10, written by Peter Selinger 2001-2011
</metadata>
<g transform="translate(0.000000,300.000000) scale(0.100000,-0.100000)"
fill="#ffffff" stroke="none">
<path d="M161 2533 c-24 -9 -63 -35 -86 -58 -78 -78 -75 -33 -75 -975 0 -942
-3 -897 75 -975 80 -80 -21 -75 1425 -75 1450 0 1346 -6 1426 77 78 79 74 33
74 973 0 942 3 897 -75 975 -80 80 21 75 -1429 74 -1142 0 -1296 -2 -1335 -16z
m2583 -162 c-14 -13 -602 -532 -884 -781 -332 -293 -316 -280 -354 -280 -33 0
-152 101 -746 629 -47 42 -176 157 -288 255 -111 99 -202 181 -202 183 0 1
559 3 1242 3 703 0 1238 -4 1232 -9z m-2139 -516 c154 -136 302 -268 329 -292
l49 -44 -24 -23 c-13 -13 -170 -164 -349 -336 -179 -173 -351 -339 -382 -369
l-58 -55 0 753 0 753 78 -70 c42 -38 203 -181 357 -317z m2223 -757 l-3 -370
-370 357 c-203 196 -385 372 -403 389 l-33 33 163 145 c90 79 271 240 403 357
l240 213 3 -377 c1 -207 1 -543 0 -747z m-1561 171 c114 -100 146 -119 218
-126 91 -9 138 14 280 139 69 60 129 108 134 106 9 -3 410 -389 676 -650 l120
-118 -1200 0 -1200 0 80 80 c44 43 226 221 405 393 l325 315 32 -27 c17 -14
76 -65 130 -112z"/>
</g>
</svg>
