<?xml version="1.0" standalone="no"?>
<!DOCTYPE svg PUBLIC "-//W3C//DTD SVG 20010904//EN"
 "http://www.w3.org/TR/2001/REC-SVG-20010904/DTD/svg10.dtd">
<svg version="1.0" xmlns="http://www.w3.org/2000/svg"
 width="900.000000pt" height="900.000000pt" viewBox="0 0 900.000000 900.000000"
 preserveAspectRatio="xMidYMid meet">
<metadata>
Created by potrace 1.10, written by Peter Selinger 2001-2011
</metadata>
<g transform="translate(0.000000,900.000000) scale(0.100000,-0.100000)"
fill="#FFFFFF" stroke="none">
<path d="M2580 8305 c-145 -33 -277 -159 -313 -300 -7 -26 -13 -533 -16 -1475
l-6 -1435 -240 -6 c-157 -4 -256 -11 -285 -20 -108 -33 -213 -118 -260 -209
-47 -93 -50 -124 -50 -583 0 -324 -3 -436 -12 -445 -9 -9 -74 -12 -227 -12
-144 -1 -234 -5 -271 -14 -170 -41 -283 -153 -323 -322 -16 -66 -17 -176 -17
-1273 l0 -1201 -76 0 c-128 0 -194 -48 -194 -143 0 -69 38 -119 104 -136 63
-16 8142 -16 8216 0 43 9 56 18 81 51 36 50 39 105 8 155 -31 50 -71 67 -169
73 l-85 5 -6 1235 c-3 679 -9 1247 -13 1263 -23 77 -86 167 -150 214 -107 80
-163 92 -433 93 -116 0 -218 3 -227 6 -14 5 -16 53 -16 430 0 507 -5 541 -91
659 -43 59 -59 74 -120 109 -93 53 -126 59 -389 65 l-245 6 -5 1460 -5 1460
-35 65 c-65 120 -161 195 -290 226 -79 19 -3757 18 -3840 -1z m3825 -291 c14
-9 34 -31 45 -49 20 -32 20 -40 20 -3494 l0 -3461 -490 0 c-385 0 -490 3 -490
13 0 6 -1 345 -2 752 l-3 740 -32 65 c-65 132 -162 209 -304 244 -56 14 -145
16 -645 16 -618 0 -650 -2 -752 -51 -48 -24 -149 -112 -163 -143 -5 -12 -13
-28 -18 -36 -48 -77 -46 -45 -51 -845 l-5 -750 -487 -3 -488 -2 0 3470 0 3470
34 38 c34 37 35 37 128 42 51 3 900 4 1886 2 1623 -2 1795 -4 1817 -18z
m-4160 -5109 l0 -1890 -695 0 -695 0 -3 1195 c-2 830 0 1206 8 1232 6 22 24
48 43 62 l32 25 325 3 c362 4 360 4 404 72 l26 40 0 501 c1 275 5 519 9 543 9
47 51 98 85 105 11 3 120 4 241 3 l220 -1 0 -1890z m4989 1881 c18 -7 43 -27
54 -43 21 -30 21 -39 24 -564 3 -516 4 -535 23 -569 12 -19 36 -43 55 -55 33
-19 54 -20 358 -23 352 -3 342 -1 388 -61 19 -25 19 -53 19 -1241 l0 -1215
-700 0 -700 0 -3 1879 c-1 1380 1 1882 9 1892 17 20 425 20 473 0z m-2084
-2261 c12 -11 31 -37 41 -57 18 -36 19 -67 17 -745 l-3 -708 -700 0 -700 0 -3
710 c-1 493 1 718 9 736 13 33 57 75 84 82 11 3 293 4 626 3 592 -1 607 -1
629 -21z"/>
<path d="M3079 7468 c-45 -7 -59 -14 -86 -45 l-33 -36 0 -471 c0 -445 1 -473
19 -500 10 -15 32 -37 47 -47 28 -18 57 -19 564 -19 507 0 536 1 564 19 15 10
37 32 47 47 18 27 19 55 19 495 l0 466 -30 41 c-25 35 -36 42 -77 48 -63 10
-964 11 -1034 2z m856 -558 l0 -275 -325 -3 c-179 -1 -335 0 -347 3 l-23 5 0
269 c0 147 3 271 7 274 4 4 160 6 347 5 l341 -3 0 -275z"/>
<path d="M4909 7468 c-45 -7 -59 -14 -86 -45 l-33 -36 0 -475 c0 -464 0 -474
21 -500 51 -65 21 -62 604 -62 511 0 531 1 563 20 18 11 41 34 52 52 19 32 20
52 20 490 0 442 -1 458 -20 491 -42 71 -38 70 -581 71 -267 1 -510 -2 -540 -6z
m859 -547 c2 -186 -1 -268 -9 -277 -9 -11 -74 -14 -345 -14 -319 0 -334 1
-344 19 -11 21 -15 497 -4 525 6 15 43 16 353 14 l346 -3 3 -264z"/>
<path d="M3029 5906 c-72 -49 -69 -23 -69 -542 l0 -467 26 -34 c49 -65 42 -64
613 -61 569 3 554 2 598 67 l23 34 0 459 c0 510 2 496 -67 543 l-38 25 -525 0
-525 0 -36 -24z m895 -262 c14 -5 16 -40 16 -280 l0 -274 -350 0 -350 0 0 268
c0 195 3 271 12 280 9 9 97 12 334 12 177 0 329 -3 338 -6z"/>
<path d="M4862 5912 c-18 -10 -42 -31 -52 -48 -19 -28 -20 -50 -20 -501 l0
-471 26 -32 c51 -60 47 -60 597 -60 360 0 511 3 540 12 27 8 49 24 68 51 l29
40 0 460 c0 450 0 460 -21 494 -12 18 -38 42 -60 53 -37 19 -60 20 -556 20
-475 -1 -521 -2 -551 -18z m897 -276 c8 -9 11 -91 9 -277 l-3 -264 -350 0
-350 0 -3 262 c-2 228 0 263 14 277 13 14 57 16 343 16 266 0 331 -3 340 -14z"/>
<path d="M3055 4372 c-29 -10 -58 -33 -78 -62 -15 -22 -17 -69 -17 -496 l0
-472 41 -41 41 -41 545 0 c536 0 545 0 571 21 64 50 62 28 62 536 0 504 1 492
-59 538 -25 19 -44 20 -556 22 -291 1 -539 -2 -550 -5z m880 -552 l0 -275
-345 0 -345 0 -3 265 c-1 146 0 270 3 277 3 11 76 13 347 11 l343 -3 0 -275z"/>
<path d="M4882 4373 c-12 -2 -38 -21 -57 -40 l-35 -36 0 -480 0 -480 40 -39
41 -38 542 0 c513 0 544 1 570 19 16 10 37 33 48 50 18 30 19 56 19 490 l0
459 -33 43 c-18 24 -44 46 -57 50 -27 8 -1040 9 -1078 2z m883 -553 l0 -275
-346 -3 -347 -2 -6 22 c-3 13 -6 133 -6 269 0 179 3 248 12 257 9 9 96 12 353
10 l340 -3 0 -275z"/>
<path d="M1196 3091 c-86 -57 -88 -164 -4 -230 19 -15 41 -21 81 -21 48 0 58
4 89 34 92 89 35 236 -92 236 -27 0 -56 -8 -74 -19z"/>
<path d="M1760 3094 c-50 -32 -66 -72 -61 -155 0 -15 16 -41 38 -62 33 -33 42
-37 90 -37 62 0 93 17 123 65 56 90 -11 205 -120 205 -25 0 -56 -8 -70 -16z"/>
<path d="M1204 2391 c-109 -67 -94 -211 26 -251 72 -24 151 18 170 92 33 120
-93 222 -196 159z"/>
<path d="M1763 2390 c-46 -28 -65 -62 -65 -119 0 -143 178 -191 252 -68 72
118 -69 259 -187 187z"/>
<path d="M1232 1700 c-60 -14 -102 -70 -102 -137 0 -74 63 -133 142 -133 41 0
54 5 87 35 110 99 19 268 -127 235z"/>
<path d="M1797 1703 c-37 -6 -97 -66 -99 -101 -6 -112 41 -172 134 -172 79 0
138 60 138 141 0 40 -5 52 -37 87 -39 42 -76 54 -136 45z"/>
<path d="M7080 3070 c-37 -37 -40 -44 -40 -96 0 -52 3 -59 39 -95 35 -35 44
-39 91 -39 92 0 140 48 140 140 0 47 -4 56 -39 91 -36 36 -43 39 -95 39 -52 0
-59 -3 -96 -40z"/>
<path d="M7647 3075 c-91 -89 -37 -235 87 -235 28 0 61 7 78 18 34 19 68 78
68 117 0 39 -34 98 -68 118 -18 10 -51 17 -80 17 -42 0 -54 -5 -85 -35z"/>
<path d="M7117 2396 c-16 -7 -39 -26 -52 -42 -30 -36 -34 -111 -7 -156 19 -34
78 -68 117 -68 39 0 98 34 118 68 24 43 22 116 -4 154 -38 52 -111 71 -172 44z"/>
<path d="M7675 2393 c-59 -32 -82 -82 -70 -151 8 -49 44 -88 95 -103 116 -35
222 96 160 196 -43 70 -119 93 -185 58z"/>
<path d="M7695 1699 c-17 -4 -44 -22 -60 -39 -25 -26 -29 -38 -30 -88 0 -62
18 -97 67 -126 34 -21 99 -20 135 1 38 21 73 82 73 126 0 49 -49 113 -97 126
-43 12 -47 12 -88 0z"/>
<path d="M7095 1682 c-40 -33 -55 -66 -55 -115 0 -80 59 -137 141 -137 41 0
52 5 88 40 39 38 41 43 41 98 0 54 -3 61 -37 95 -34 35 -40 37 -97 37 -43 -1
-67 -6 -81 -18z"/>
</g>
</svg>